<svg xmlns="http://www.w3.org/2000/svg" width="32" height="32" fill="none"><path fill="#E2E4E9" fill-rule="evenodd" d="M16 3.321c-7.179 0-13 5.82-13 13 0 5.744 3.725 10.616 8.89 12.336.65.12.888-.282.888-.626 0-.31-.012-1.334-.018-2.42-3.616.786-4.38-1.534-4.38-1.534-.59-1.502-1.443-1.902-1.443-1.902-1.18-.807.09-.79.09-.79 1.304.091 1.992 1.34 1.992 1.34 1.16 1.987 3.041 1.412 3.783 1.08.117-.84.454-1.414.825-1.738-2.887-.329-5.923-1.443-5.923-6.425 0-1.419.508-2.579 1.34-3.49-.135-.326-.58-1.649.126-3.44 0 0 1.091-.349 3.575 1.333A12.5 12.5 0 0 1 16 9.607c1.104.005 2.217.15 3.256.438 2.482-1.682 3.572-1.333 3.572-1.333.707 1.79.262 3.113.127 3.44.834.911 1.338 2.07 1.338 3.49 0 4.993-3.04 6.092-5.936 6.414.467.404.882 1.195.882 2.408 0 1.739-.015 3.139-.015 3.567 0 .346.235.751.893.624C25.28 26.934 29 22.063 29 16.32c0-7.18-5.82-13-13-13" clip-rule="evenodd"/><path fill="#E2E4E9" d="M7.924 21.986c-.029.064-.13.084-.223.04-.095-.043-.148-.13-.117-.195.028-.067.13-.085.224-.04.095.042.149.13.116.195m.526.587c-.062.058-.183.031-.265-.06-.085-.09-.101-.212-.038-.27.064-.057.182-.03.267.06.085.092.101.212.036.27m.513.749c-.08.055-.21.004-.29-.112s-.08-.255.002-.31c.08-.056.208-.005.29.109.08.117.08.256-.002.313m.702.723c-.071.079-.223.058-.334-.05-.113-.104-.145-.253-.074-.332.072-.078.225-.056.337.05.113.105.147.254.071.332m.969.42c-.032.102-.178.148-.325.105-.147-.045-.243-.164-.213-.267.03-.102.177-.15.325-.104.147.044.243.163.213.266m1.064.078c.003.107-.121.196-.276.198-.155.004-.281-.083-.283-.189 0-.108.123-.196.278-.199.154-.002.28.084.28.19m.99-.168c.018.104-.09.212-.243.24-.15.028-.29-.037-.31-.14-.018-.108.091-.215.242-.243.154-.026.291.037.31.143"/></svg>