<svg xmlns="http://www.w3.org/2000/svg" width="32" height="32" fill="none"><path fill="#EABD5F" d="m3 21.747 3.018-1.797c.583 1.016 1.113 1.875 2.383 1.875 1.218 0 1.986-.466 1.986-2.292V7.135h3.707v12.45c0 3.776-2.25 5.495-5.533 5.495a5.83 5.83 0 0 1-3.306-.819A5.7 5.7 0 0 1 3 21.747m13.108-.392 3.018-1.72c.335.67.856 1.233 1.502 1.625a4.1 4.1 0 0 0 2.151.59c1.536 0 2.515-.756 2.515-1.798 0-1.25-1.006-1.694-2.7-2.426l-.924-.386c-2.674-1.12-4.448-2.526-4.448-5.496 0-2.735 2.118-4.818 5.427-4.818a5.55 5.55 0 0 1 3.08.678 5.43 5.43 0 0 1 2.188 2.24l-2.886 1.823a2.5 2.5 0 0 0-.944-1.146 2.55 2.55 0 0 0-1.439-.417 1.64 1.64 0 0 0-1.237.397 1.59 1.59 0 0 0-.537 1.166c0 1.094.689 1.536 2.276 2.214l.926.39C27.227 15.6 29 16.955 29 20.002c0 3.282-2.62 5.08-6.141 5.08-3.442 0-5.666-1.616-6.751-3.726"/></svg>