<svg xmlns="http://www.w3.org/2000/svg" width="32" height="32" fill="none"><path fill="#82BC4F" d="m26.594 8.761-9.481-5.506a2.05 2.05 0 0 0-1.98 0L5.55 8.761c-.617.355-1.054 1.022-1.054 1.736v10.996c0 .714.449 1.382 1.066 1.738l2.532 1.438c1.21.596 1.637.596 2.188.596 1.792 0 2.815-1.083 2.815-2.973V11.436c0-.153-.08-.382-.23-.382h-1.21c-.152 0-.495.229-.495.382v10.856c0 .838-.758 1.671-2.174.963l-2.616-1.508a.3.3 0 0 1-.155-.254V10.497c0-.104.119-.208.21-.26L15.98 4.74c.089-.05.22-.05.31 0l9.435 5.495c.09.054.058.155.058.262v10.996c0 .105.04.208-.05.258l-9.479 5.5a.27.27 0 0 1-.271 0l-2.431-1.452c-.074-.042-.16-.058-.231-.018-.677.383-.801.434-1.436.654-.156.054-.386.149.088.415l3.182 1.882a2 2 0 0 0 2.003 0l9.436-5.5c.617-.36.91-1.025.91-1.739V10.497c0-.714-.293-1.38-.91-1.736M19.1 19.751c-2.522 0-3.077-.696-3.262-1.95-.022-.134-.136-.296-.274-.296h-1.232c-.153 0-.275.185-.275.337 0 1.605.873 3.55 5.043 3.55 3.018 0 4.749-1.173 4.749-3.249 0-2.058-1.39-2.598-4.318-2.985-2.96-.391-3.26-.59-3.26-1.282 0-.572.255-1.334 2.446-1.334 1.958 0 2.68.42 2.976 1.74a.27.27 0 0 0 .267.213h1.237c.076 0 .149-.031.202-.085a.28.28 0 0 0 .072-.21c-.191-2.273-1.701-3.332-4.754-3.332-2.716 0-4.336 1.147-4.336 3.07 0 2.085 1.612 2.66 4.219 2.919 3.119.305 3.361.761 3.361 1.375 0 1.065-.855 1.519-2.861 1.519"/></svg>