<svg xmlns="http://www.w3.org/2000/svg" width="32" height="32" fill="none"><path fill="#3996DB" d="M16.748 25.258c-.231-.204-.472-.41-.703-.637-.184.17-.356.33-.539.489-2.28 1.965-4.629 2.783-6.022 1.988-1.347-.761-1.772-3.01-1.232-5.839q.085-.46.207-.92c-.242-.07-.472-.136-.703-.213C4.888 19.147 3 17.557 3 15.966c0-1.532 1.762-3.02 4.514-3.974.308-.103.633-.205.967-.296a18 18 0 0 1-.195-.854C7.709 7.97 8.112 5.677 9.47 4.904c1.416-.818 3.766.057 6.125 2.112.138.125.277.262.426.398.22-.205.426-.409.645-.59 2.234-1.923 4.456-2.727 5.815-1.954 1.416.794 1.831 3.248 1.198 6.28a8 8 0 0 1-.127.57c.288.08.576.17.84.262 2.81.954 4.63 2.442 4.607 4.009 0 1.601-1.946 3.18-4.93 4.157-.161.046-.322.103-.484.147.07.227.115.455.16.682.6 2.942.139 5.35-1.254 6.145a2.4 2.4 0 0 1-1.213.299c-1.277-.002-2.898-.78-4.531-2.163m2.257-4.169a27 27 0 0 1-2.176 2.726q.329.32.656.591c1.9 1.613 3.65 2.215 4.468 1.75a2.3 2.3 0 0 0 .6-.715c.147-.274.233-.571.252-.875a9.1 9.1 0 0 0-.138-3.385 6 6 0 0 0-.138-.624c-1.16.25-2.338.429-3.524.532m-9.65.364c-.47 2.42-.126 4.225.694 4.691a2.3 2.3 0 0 0 1.82-.071 9.4 9.4 0 0 0 2.913-1.795c.173-.136.334-.295.507-.454a28 28 0 0 1-2.234-2.726 28 28 0 0 1-3.512-.499c-.072.297-.13.58-.187.854m6.703 1.59a24 24 0 0 0 1.52-1.851 35 35 0 0 1-3.086 0c.517.669 1.037 1.294 1.566 1.85m-2.42-11.085a27 27 0 0 0-1.266 1.976c-.402.681-.77 1.374-1.105 2.065.346.681.714 1.374 1.117 2.079.403.681.829 1.352 1.266 1.987.76.045 1.555.07 2.36.07.807 0 1.612-.022 2.384-.078.415-.624.84-1.295 1.244-1.988s.783-1.397 1.117-2.078a37 37 0 0 0-1.117-2.056 32 32 0 0 0-1.255-1.977 32 32 0 0 0-2.371-.09c-.806 0-1.601.033-2.373.09M9.84 19.556q1.186.25 2.396.375a37 37 0 0 1-.818-1.318c-.253-.443-.507-.886-.737-1.328a23 23 0 0 0-.84 2.27m10.766-.954c-.265.454-.53.885-.794 1.306a24 24 0 0 0 2.43-.409 23 23 0 0 0-.875-2.26q-.363.68-.76 1.363M7.87 13.036c-2.348.818-3.764 2.01-3.764 2.942.044.3.153.589.319.85.166.262.386.49.647.672a9.8 9.8 0 0 0 3.04 1.59c.207.071.426.125.645.194q.531-1.677 1.278-3.283a25 25 0 0 1-1.266-3.234q-.466.116-.899.27M22 15.978q.766 1.585 1.31 3.248c.15-.046.3-.091.437-.137 2.568-.84 4.16-2.123 4.169-3.123 0-.931-1.474-2.136-3.88-2.953a37 37 0 0 0-.771-.239 26 26 0 0 1-1.265 3.204m-1.404-2.612c.265.454.518.898.748 1.34q.48-1.086.828-2.214a24 24 0 0 0-2.372-.41c.277.42.542.841.796 1.284M9.85 12.482c.231.727.507 1.466.829 2.226.231-.443.484-.886.737-1.329q.38-.663.794-1.295c-.828.1-1.611.237-2.36.398m7.542-4.827c-.196.17-.392.352-.588.534q1.201 1.282 2.2 2.706c1.171.104 2.333.286 3.477.545.046-.17.077-.341.115-.511.54-2.612.208-4.612-.668-5.11-.192-.1-.41-.15-.63-.143-.94-.004-2.384.673-3.906 1.977zm-7.37-1.808c-.817.465-1.14 2.328-.656 4.781.058.262.116.522.184.795a29 29 0 0 1 3.478-.534 24 24 0 0 1 2.21-2.706c-.126-.125-.264-.238-.39-.352-1.603-1.4-3.144-2.14-4.15-2.14a1.35 1.35 0 0 0-.675.156m7.53 4.952A21 21 0 0 0 16.02 8.97a25 25 0 0 0-1.54 1.829 34 34 0 0 1 3.075 0m-3.845 5.225a2.1 2.1 0 0 1 .152-.857c.111-.273.28-.524.496-.737s.475-.385.763-.505.599-.187.915-.196a2.5 2.5 0 0 1 1.676.703c.436.43.67 1.002.65 1.592.02.59-.213 1.162-.65 1.593a2.5 2.5 0 0 1-1.677.703 2.6 2.6 0 0 1-.915-.196 2.4 2.4 0 0 1-.764-.506 2.2 2.2 0 0 1-.495-.737 2.1 2.1 0 0 1-.15-.857"/></svg>